# xmcd
#
# Track frame offsets:
#	150
#	166111
#	203130
#	242276
#	263740
#	276904
#
# Disc length: 3949 seconds
#
# Revision: 19792456
# Processed by: cddbd v1.5.2PL0 Copyright (c) Steve Scherf et al.
# Submitted via: EZCDAudioConverter 8.5.0.1
#
DISCID=470f6b06
DTITLE=The Velvet Underground - The Velvet Underground: 45th Anniversary Editi
DTITLE=on 6/6
DYEAR=2014
DGENRE=
TTITLE0=Sister Ray [Live At The Matrix]
TTITLE1=Heroin [Live At The Matrix]
TTITLE2=White Light/White Heat [Live At The Matrix]
TTITLE3=I'm Set Free [Live At The Matrix]
TTITLE4=After Hours [Live At The Matrix]
TTITLE5=Sweet Jane [Live At The Matrix]
EXTD=
EXTT0=
EXTT1=
EXTT2=
EXTT3=
EXTT4=
EXTT5=
PLAYORDER=
